<svg width="93" height="92" viewBox="0 0 93 92" fill="none" xmlns="http://www.w3.org/2000/svg">
<g clip-path="url(#clip0_163_32)">
<path d="M24.13 15.9001L15.23 10.4201L16.26 9.6101L21.49 12.9001C21.79 13.0901 22.18 13.3501 22.67 13.6801C23.15 14.0101 23.74 14.4201 24.43 14.9101L24.24 15.0601C23.91 14.2501 23.64 13.5801 23.44 13.0501C23.24 12.5101 23.08 12.0801 22.97 11.7401L20.96 5.9201L22 5.1001L25.26 15.0201L24.13 15.9101V15.9001Z" fill="var(--textColor)"/>
<path d="M30.28 12.0101C29.86 12.2201 29.45 12.3401 29.03 12.3501C28.61 12.3701 28.23 12.2801 27.87 12.0801C27.52 11.8801 27.23 11.5701 27.01 11.1401C26.82 10.7601 26.74 10.4201 26.77 10.1101C26.8 9.80009 26.9 9.51009 27.08 9.25009C27.26 8.99009 27.48 8.75009 27.75 8.53009C28.02 8.31009 28.29 8.10009 28.58 7.91009C28.95 7.66009 29.24 7.46009 29.48 7.31009C29.72 7.16009 29.87 7.02009 29.96 6.89009C30.04 6.76009 30.05 6.62009 29.96 6.46009L29.94 6.42009C29.8 6.15009 29.63 5.94009 29.43 5.80009C29.23 5.66009 29 5.59009 28.75 5.60009C28.5 5.61009 28.21 5.68009 27.91 5.84009C27.6 6.00009 27.35 6.19009 27.18 6.40009C27.01 6.61009 26.89 6.83009 26.83 7.04009C26.76 7.26009 26.74 7.46009 26.75 7.65009L25.56 7.83009C25.52 7.35009 25.59 6.92009 25.76 6.55009C25.93 6.18009 26.16 5.86009 26.46 5.59009C26.76 5.32009 27.07 5.10009 27.41 4.93009C27.63 4.82009 27.89 4.72009 28.2 4.63009C28.51 4.54009 28.83 4.51009 29.17 4.53009C29.51 4.55009 29.84 4.68009 30.17 4.90009C30.5 5.12009 30.79 5.49009 31.05 6.00009L33.26 10.3201L32.22 10.8501L31.77 9.96009L31.7 10.0001C31.7 10.1901 31.67 10.4101 31.58 10.6501C31.49 10.8901 31.36 11.1401 31.15 11.3801C30.94 11.6201 30.66 11.8401 30.28 12.0301V12.0101ZM29.99 10.9801C30.38 10.7801 30.67 10.5401 30.87 10.2501C31.06 9.96009 31.17 9.66009 31.18 9.34009C31.2 9.02009 31.14 8.73009 31 8.47009L30.54 7.56009C30.52 7.63009 30.45 7.73009 30.33 7.84009C30.21 7.96009 30.06 8.08009 29.89 8.20009C29.72 8.33009 29.55 8.44009 29.39 8.55009C29.23 8.66009 29.1 8.75009 29 8.81009C28.76 8.97009 28.55 9.15009 28.37 9.33009C28.19 9.52009 28.07 9.72009 28.01 9.93009C27.95 10.1401 27.99 10.3801 28.11 10.6301C28.23 10.8601 28.38 11.0201 28.58 11.1101C28.77 11.2001 29 11.2401 29.24 11.2101C29.48 11.1801 29.74 11.1101 30 10.9701L29.99 10.9801Z" fill="var(--textColor)"/>
<path d="M34.6001 9.53007L32.9301 2.36007L34.0501 2.10007L34.4301 3.70007L34.3401 3.72007C34.3401 3.31007 34.4301 2.95007 34.5801 2.65007C34.7301 2.35007 34.9401 2.10007 35.1901 1.90007C35.4401 1.70007 35.7301 1.57007 36.0301 1.50007C36.5501 1.38007 37.0101 1.44007 37.4101 1.69007C37.8101 1.94007 38.1101 2.31007 38.3301 2.81007L38.1801 2.85007C38.1801 2.47007 38.2701 2.12007 38.4301 1.81007C38.5901 1.50007 38.8201 1.23007 39.1101 1.02007C39.4001 0.800069 39.7301 0.650069 40.1201 0.560069C40.5301 0.460069 40.9301 0.470069 41.3201 0.560069C41.7001 0.660069 42.0401 0.870069 42.3301 1.18007C42.6201 1.50007 42.8301 1.93007 42.9501 2.49007L44.0801 7.32007L42.9301 7.59007L41.8101 2.79007C41.6901 2.27007 41.4601 1.94007 41.1101 1.78007C40.7701 1.63007 40.4001 1.59007 40.0201 1.68007C39.7001 1.75007 39.4401 1.89007 39.2401 2.08007C39.0401 2.27007 38.9001 2.50007 38.8301 2.76007C38.7601 3.02007 38.7601 3.31007 38.8301 3.61007L39.9201 8.29007L38.7701 8.56007L37.6301 3.64007C37.5401 3.24007 37.3301 2.95007 37.0101 2.77007C36.6901 2.59007 36.3201 2.54007 35.9201 2.64007C35.6401 2.70007 35.4001 2.83007 35.1801 3.02007C34.9701 3.21007 34.8101 3.45007 34.7201 3.74007C34.6301 4.03007 34.6301 4.37007 34.7201 4.75007L35.7701 9.26007L34.6201 9.53007H34.6001Z" fill="var(--textColor)"/>
<path d="M48.61 7.61001C47.94 7.60001 47.36 7.43001 46.86 7.10001C46.36 6.77001 45.98 6.32001 45.71 5.75001C45.44 5.17001 45.31 4.51001 45.33 3.75001C45.34 2.98001 45.5 2.31001 45.79 1.75001C46.08 1.18001 46.48 0.750011 46.99 0.440011C47.5 0.130011 48.09 -0.00998902 48.75 1.09805e-05C49.42 0.010011 50.01 0.180011 50.5 0.510011C50.99 0.840011 51.38 1.29001 51.65 1.86001C51.92 2.44001 52.05 3.11001 52.03 3.88001C52.02 4.63001 51.86 5.30001 51.57 5.86001C51.28 6.43001 50.88 6.86001 50.37 7.17001C49.86 7.48001 49.27 7.62001 48.6 7.61001H48.61ZM48.63 6.55001C49.13 6.55001 49.54 6.44001 49.86 6.19001C50.18 5.94001 50.43 5.61001 50.59 5.20001C50.75 4.79001 50.84 4.34001 50.84 3.86001C50.84 3.37001 50.78 2.92001 50.63 2.50001C50.48 2.08001 50.25 1.74001 49.94 1.47001C49.62 1.21001 49.22 1.07001 48.72 1.06001C48.23 1.06001 47.82 1.17001 47.5 1.42001C47.18 1.67001 46.94 2.00001 46.78 2.42001C46.62 2.84001 46.53 3.29001 46.52 3.78001C46.52 4.26001 46.58 4.71001 46.73 5.13001C46.88 5.55001 47.1 5.89001 47.42 6.15001C47.74 6.41001 48.13 6.55001 48.62 6.55001H48.63Z" fill="var(--textColor)"/>
<path d="M55.66 8.40996C55.17 8.30996 54.74 8.13996 54.39 7.91996C54.04 7.68996 53.7701 7.40996 53.5801 7.07996C53.3901 6.73996 53.3 6.35996 53.3 5.92996L54.46 5.89996C54.48 6.31996 54.6101 6.64996 54.8601 6.88996C55.1101 7.12996 55.44 7.29996 55.87 7.38996C56.37 7.49996 56.79 7.46996 57.14 7.31996C57.48 7.16996 57.69 6.93996 57.75 6.64996C57.8 6.39996 57.75 6.17996 57.62 5.96996C57.48 5.76996 57.2401 5.58996 56.9001 5.42996L55.76 4.88996C55.14 4.59996 54.71 4.25996 54.46 3.86996C54.21 3.47996 54.14 3.02996 54.25 2.51996C54.34 2.10996 54.5301 1.76996 54.8301 1.49996C55.1301 1.22996 55.5 1.04996 55.94 0.959963C56.38 0.869963 56.8501 0.869963 57.3601 0.979963C57.8501 1.07996 58.26 1.24996 58.57 1.46996C58.88 1.68996 59.12 1.94996 59.28 2.25996C59.44 2.56996 59.5401 2.89996 59.5801 3.25996L58.4701 3.30996C58.4301 3.02996 58.3101 2.75996 58.1301 2.49996C57.9401 2.23996 57.62 2.05996 57.16 1.95996C56.73 1.86996 56.35 1.88996 56.03 2.02996C55.7 2.16996 55.51 2.38996 55.44 2.68996C55.38 2.95996 55.44 3.18996 55.6 3.38996C55.76 3.58996 56.04 3.78996 56.44 3.96996L57.48 4.45996C58.1 4.74996 58.53 5.08996 58.78 5.47996C59.03 5.86996 59.1001 6.30996 58.9901 6.80996C58.9001 7.22996 58.7001 7.57996 58.4001 7.85996C58.0901 8.13996 57.7001 8.32996 57.2401 8.42996C56.7701 8.52996 56.2601 8.51996 55.7001 8.39996L55.66 8.40996Z" fill="var(--textColor)"/>
<path d="M65.67 12.0699C65.08 11.7599 64.64 11.3399 64.34 10.8299C64.05 10.3099 63.91 9.7399 63.93 9.0999C63.95 8.4599 64.14 7.8099 64.49 7.1499C64.85 6.4699 65.29 5.9499 65.81 5.5699C66.33 5.1999 66.88 4.9899 67.47 4.9499C68.06 4.9099 68.65 5.0399 69.24 5.3599C69.55 5.5299 69.83 5.7299 70.06 5.9599C70.29 6.1899 70.49 6.4399 70.64 6.7199C70.79 6.9999 70.89 7.2899 70.94 7.5999C70.99 7.9099 70.98 8.2299 70.92 8.5599L69.76 8.3099C69.8 8.1199 69.81 7.9299 69.79 7.7399C69.77 7.5499 69.71 7.3599 69.63 7.1899C69.55 7.0099 69.43 6.8499 69.28 6.6999C69.13 6.5499 68.95 6.4199 68.74 6.2999C68.31 6.0699 67.89 5.9899 67.49 6.0699C67.09 6.1499 66.72 6.3399 66.39 6.6299C66.06 6.9299 65.78 7.2899 65.55 7.7199C65.32 8.1499 65.18 8.5799 65.12 9.0199C65.06 9.4599 65.12 9.8599 65.27 10.2399C65.42 10.6199 65.73 10.9199 66.16 11.1499C66.38 11.2699 66.59 11.3399 66.8 11.3799C67.01 11.4199 67.22 11.4199 67.42 11.3899C67.62 11.3599 67.81 11.2999 67.98 11.1999C68.16 11.0999 68.31 10.9799 68.45 10.8299L69.3 11.6499C69.06 11.8999 68.8 12.0899 68.51 12.2199C68.22 12.3499 67.92 12.4399 67.6 12.4799C67.28 12.5199 66.96 12.4999 66.63 12.4399C66.3 12.3699 65.98 12.2499 65.66 12.0899L65.67 12.0699Z" fill="var(--textColor)"/>
<path d="M71.64 16.0699C71.12 15.6499 70.77 15.1499 70.58 14.5899C70.39 14.0299 70.37 13.4399 70.52 12.8199C70.67 12.1999 70.98 11.5999 71.46 11.0199C71.95 10.4299 72.48 9.99992 73.06 9.72992C73.64 9.46992 74.23 9.36992 74.81 9.43992C75.4 9.50992 75.95 9.75992 76.47 10.1899C76.99 10.6199 77.34 11.1099 77.53 11.6799C77.72 12.2399 77.74 12.8399 77.6 13.4599C77.45 14.0799 77.14 14.6899 76.65 15.2799C76.17 15.8599 75.64 16.2899 75.06 16.5499C74.48 16.8099 73.9 16.9099 73.31 16.8299C72.72 16.7499 72.16 16.4999 71.64 16.0799V16.0699ZM72.31 15.2499C72.69 15.5599 73.09 15.7199 73.5 15.7299C73.91 15.7299 74.3 15.6299 74.69 15.3999C75.07 15.1799 75.42 14.8799 75.72 14.5099C76.03 14.1299 76.26 13.7299 76.4 13.3099C76.55 12.8899 76.58 12.4799 76.49 12.0799C76.4 11.6799 76.17 11.3199 75.79 11.0099C75.41 10.6999 75.02 10.5399 74.61 10.5399C74.2 10.5399 73.81 10.6499 73.42 10.8699C73.03 11.0899 72.69 11.3999 72.38 11.7799C72.07 12.1499 71.85 12.5499 71.7 12.9699C71.56 13.3899 71.53 13.7999 71.61 14.1899C71.69 14.5899 71.92 14.9399 72.3 15.2499H72.31Z" fill="var(--textColor)"/>
<path d="M79.38 17.1301L75.97 19.9201L75.22 19.0001L80.92 14.3401L81.64 15.2201L80.26 16.3501L80.16 16.2201C80.83 15.9601 81.4 15.9001 81.89 16.0401C82.37 16.1801 82.79 16.4701 83.14 16.9001C83.45 17.2801 83.65 17.6801 83.73 18.1001C83.81 18.5201 83.76 18.9401 83.57 19.3601C83.38 19.7801 83.05 20.1901 82.57 20.5801L78.95 23.5401L78.2 22.6201L81.74 19.7201C82.18 19.3601 82.43 18.9701 82.49 18.5301C82.55 18.1001 82.42 17.6801 82.09 17.2901C81.87 17.0201 81.61 16.8201 81.31 16.7001C81.01 16.5801 80.7 16.5501 80.37 16.6101C80.04 16.6701 79.71 16.8301 79.39 17.1001L79.38 17.1301Z" fill="var(--textColor)"/>
<path d="M80.73 26.6399L85.87 20.6699L86.49 21.8099L83.4 25.2599C83.08 25.6199 82.75 25.9599 82.41 26.2799C82.07 26.5999 81.74 26.9099 81.43 27.2199L81.22 26.8399C81.65 26.7499 82.09 26.6499 82.54 26.5399C82.99 26.4299 83.45 26.3399 83.93 26.2599L88.51 25.5599L89.13 26.6999L81.32 27.7299L80.73 26.6399Z" fill="var(--textColor)"/>
<path d="M83.68 33.87C83.46 33.19 83.43 32.56 83.57 31.97C83.72 31.38 84.02 30.87 84.47 30.43C84.93 29.99 85.51 29.66 86.23 29.43C86.95 29.2 87.62 29.13 88.25 29.21C88.88 29.29 89.43 29.53 89.89 29.9C90.35 30.28 90.68 30.78 90.88 31.42C91 31.79 91.05 32.18 91.05 32.58C91.05 32.98 90.95 33.37 90.77 33.75C90.59 34.13 90.31 34.48 89.91 34.8C89.52 35.12 89 35.38 88.35 35.59L87.88 35.74L86.15 30.29L87.1 29.99L88.64 34.83L88.12 34.41C88.58 34.26 88.97 34.06 89.28 33.8C89.59 33.54 89.8 33.24 89.91 32.89C90.02 32.54 90.01 32.16 89.88 31.73C89.75 31.31 89.53 30.98 89.22 30.74C88.92 30.51 88.57 30.36 88.19 30.31C87.81 30.26 87.42 30.29 87.04 30.41L86.41 30.61C85.89 30.78 85.48 31.01 85.18 31.3C84.88 31.59 84.68 31.93 84.6 32.32C84.52 32.7 84.54 33.11 84.68 33.53C84.77 33.81 84.89 34.04 85.04 34.24C85.19 34.44 85.37 34.6 85.59 34.71C85.81 34.82 86.04 34.88 86.31 34.9L86.36 36.09C85.97 36.09 85.61 36.01 85.26 35.83C84.91 35.66 84.6 35.4 84.33 35.07C84.06 34.74 83.84 34.33 83.69 33.85L83.68 33.87Z" fill="var(--textColor)"/>
<path d="M84.92 38.05L92.2 36.97L92.37 38.1L91.25 38.27V38.35C91.65 38.43 91.98 38.63 92.26 38.94C92.54 39.25 92.7 39.63 92.77 40.06C92.78 40.15 92.8 40.25 92.81 40.37C92.82 40.49 92.83 40.58 92.84 40.66L91.66 40.83C91.66 40.83 91.66 40.71 91.66 40.56C91.66 40.42 91.64 40.27 91.62 40.11C91.57 39.76 91.45 39.46 91.26 39.21C91.07 38.96 90.84 38.77 90.57 38.65C90.29 38.53 89.99 38.5 89.66 38.55L85.1 39.23L84.93 38.06L84.92 38.05Z" fill="var(--textColor)"/>
<path d="M85.39 45.2199C85.39 44.7199 85.47 44.2699 85.62 43.8699C85.77 43.4799 85.99 43.1599 86.28 42.8999C86.57 42.6499 86.93 42.4799 87.35 42.3899L87.62 43.5199C87.22 43.6199 86.92 43.8199 86.73 44.1099C86.54 44.3999 86.44 44.7699 86.44 45.1999C86.44 45.7099 86.55 46.1199 86.76 46.4299C86.97 46.7399 87.24 46.8899 87.54 46.8899C87.79 46.8899 88 46.7999 88.17 46.6299C88.34 46.4499 88.47 46.1799 88.55 45.8199L88.84 44.5999C89 43.9299 89.25 43.4399 89.58 43.1199C89.91 42.7999 90.34 42.6399 90.86 42.6399C91.28 42.6399 91.65 42.7599 91.97 42.9999C92.29 43.2399 92.54 43.5599 92.72 43.9699C92.9 44.3799 92.99 44.8499 92.99 45.3699C92.99 45.8699 92.91 46.2999 92.76 46.6599C92.61 47.0099 92.4 47.2999 92.13 47.5199C91.86 47.7399 91.56 47.9099 91.21 48.0099L90.94 46.9399C91.2 46.8399 91.44 46.6699 91.66 46.4399C91.88 46.2099 91.99 45.8499 91.99 45.3799C91.99 44.9399 91.89 44.5799 91.69 44.2799C91.49 43.9899 91.23 43.8399 90.93 43.8399C90.66 43.8399 90.44 43.9399 90.27 44.1299C90.1 44.3299 89.97 44.6399 89.87 45.0699L89.6 46.1799C89.44 46.8499 89.19 47.3399 88.86 47.6599C88.53 47.9799 88.11 48.1399 87.6 48.1399C87.17 48.1399 86.79 48.0099 86.45 47.7699C86.11 47.5299 85.85 47.1799 85.66 46.7499C85.47 46.3199 85.37 45.8099 85.38 45.2299L85.39 45.2199Z" fill="var(--textColor)"/>
<path d="M84.84 51.4199C84.93 50.9599 85.09 50.5699 85.33 50.2199C85.57 49.8799 85.88 49.6299 86.26 49.4699C86.63 49.3099 87.06 49.2799 87.53 49.3699C87.94 49.4499 88.27 49.5899 88.49 49.8099C88.72 50.0199 88.88 50.2799 88.98 50.5799C89.08 50.8799 89.13 51.2099 89.14 51.5499C89.15 51.8999 89.14 52.2399 89.12 52.5899C89.09 53.0299 89.07 53.3899 89.05 53.6699C89.03 53.9499 89.05 54.1599 89.09 54.2999C89.14 54.4499 89.25 54.5299 89.43 54.5699H89.47C89.77 54.6399 90.04 54.6299 90.27 54.5599C90.5 54.4899 90.69 54.3499 90.85 54.1499C91.01 53.9499 91.11 53.6799 91.18 53.3399C91.25 52.9899 91.25 52.6899 91.18 52.4199C91.12 52.1499 91.02 51.9299 90.89 51.7499C90.76 51.5699 90.61 51.4199 90.46 51.3099L91.04 50.2599C91.44 50.5299 91.74 50.8399 91.93 51.2099C92.12 51.5699 92.23 51.9499 92.26 52.3499C92.29 52.7499 92.27 53.1299 92.2 53.4999C92.15 53.7399 92.07 54.0099 91.96 54.3099C91.84 54.6099 91.67 54.8799 91.44 55.1399C91.21 55.3899 90.91 55.5799 90.54 55.7099C90.17 55.8299 89.7 55.8399 89.13 55.7299L84.36 54.8299L84.58 53.6799L85.56 53.8699L85.58 53.7899C85.43 53.6799 85.28 53.5099 85.13 53.2999C84.99 53.0899 84.88 52.8199 84.81 52.5099C84.74 52.1999 84.75 51.8399 84.83 51.4299L84.84 51.4199ZM85.83 51.8099C85.75 52.2399 85.76 52.6199 85.87 52.9499C85.98 53.2799 86.16 53.5499 86.4 53.7499C86.64 53.9599 86.91 54.0899 87.2 54.1399L88.2 54.3299C88.15 54.2699 88.12 54.1599 88.11 53.9899C88.1 53.8199 88.09 53.6299 88.09 53.4199C88.09 53.2099 88.1 52.9999 88.12 52.8099C88.13 52.6099 88.14 52.4599 88.15 52.3399C88.17 52.0499 88.15 51.7799 88.12 51.5199C88.08 51.2599 88 51.0399 87.86 50.8599C87.73 50.6799 87.52 50.5699 87.25 50.5199C87 50.4699 86.78 50.4999 86.59 50.5999C86.4 50.6999 86.24 50.8499 86.11 51.0599C85.98 51.2699 85.89 51.5199 85.83 51.8099Z" fill="var(--textColor)"/>
<path d="M83.8301 56.4199L90.7601 58.9099L90.3701 59.9899L89.3001 59.6099L89.2701 59.6799C89.5701 59.9299 89.7701 60.2599 89.8701 60.6699C89.9601 61.0699 89.9401 61.4799 89.7901 61.8999C89.7601 61.9799 89.7201 62.0799 89.6801 62.1899C89.6401 62.2999 89.6001 62.3899 89.5701 62.4599L88.4501 62.0599C88.4501 62.0599 88.5101 61.9499 88.5801 61.8299C88.6401 61.6999 88.7001 61.5699 88.7601 61.4199C88.8801 61.0899 88.9201 60.7699 88.8701 60.4599C88.8201 60.1499 88.7101 59.8699 88.5201 59.6399C88.3301 59.4099 88.0801 59.2299 87.7701 59.1199L83.4301 57.5599L83.8301 56.4399V56.4199Z" fill="var(--textColor)"/>
<path d="M81.1 62.66C81.22 62.44 81.39 62.3 81.63 62.23C81.87 62.16 82.09 62.18 82.3 62.3C82.52 62.42 82.66 62.59 82.73 62.83C82.8 63.06 82.78 63.29 82.66 63.51C82.54 63.73 82.37 63.87 82.13 63.94C81.9 64.01 81.67 63.98 81.46 63.87C81.25 63.76 81.11 63.58 81.04 63.35C80.97 63.12 80.99 62.89 81.11 62.68L81.1 62.66ZM84.06 63.57L84.12 63.6C84.65 63.89 85.03 64.16 85.26 64.42C85.49 64.68 85.64 64.95 85.7 65.23C85.76 65.51 85.8 65.83 85.82 66.18C85.84 66.52 85.92 66.84 86.06 67.14C86.2 67.44 86.44 67.68 86.78 67.87C87.05 68.02 87.32 68.08 87.58 68.06C87.84 68.04 88.09 67.95 88.31 67.8C88.53 67.65 88.72 67.44 88.86 67.18C88.98 66.95 89.05 66.71 89.07 66.45C89.09 66.19 89.04 65.93 88.91 65.69C88.78 65.44 88.57 65.22 88.26 65.02L88.86 63.92C89.34 64.2 89.68 64.55 89.9 64.96C90.12 65.37 90.21 65.82 90.19 66.29C90.17 66.76 90.03 67.23 89.79 67.68C89.52 68.18 89.19 68.56 88.79 68.83C88.4 69.09 87.97 69.23 87.52 69.25C87.07 69.27 86.62 69.16 86.18 68.92C85.71 68.67 85.37 68.35 85.15 67.96C84.93 67.57 84.81 67.13 84.78 66.64C84.76 66.31 84.73 66.03 84.67 65.8C84.61 65.57 84.5 65.37 84.34 65.19C84.18 65.01 83.92 64.83 83.58 64.65L83.52 64.62L84.09 63.57H84.06Z" fill="var(--textColor)"/>
<path d="M70.44 78.9899L69.35 79.6999L67.65 79.0899L67.21 78.9199L64.66 77.9899L65.75 77.2799L67.43 77.8999L67.86 78.0599L70.44 78.9899ZM68.35 76.5299C69.05 76.0699 69.79 75.8399 70.56 75.8199C71.33 75.7999 72.08 76.0099 72.81 76.4299C73.54 76.8499 74.18 77.4999 74.75 78.3699C75.32 79.2399 75.65 80.0999 75.74 80.9299C75.83 81.7699 75.72 82.5399 75.39 83.2399C75.06 83.9399 74.55 84.5199 73.85 84.9799C73.15 85.4399 72.41 85.6699 71.64 85.6899C70.87 85.6999 70.12 85.4999 69.4 85.0699C68.68 84.6399 68.03 83.9999 67.46 83.1199C66.9 82.2499 66.56 81.3999 66.47 80.5699C66.37 79.7299 66.49 78.9699 66.81 78.2699C67.14 77.5699 67.65 76.9999 68.35 76.5399V76.5299ZM68.98 77.4999C68.49 77.8199 68.13 78.2299 67.9 78.7399C67.67 79.2499 67.59 79.8199 67.67 80.4499C67.75 81.0899 68.02 81.7499 68.47 82.4499C68.93 83.1599 69.43 83.6699 69.98 84.0099C70.53 84.3399 71.08 84.4999 71.64 84.4899C72.2 84.4899 72.72 84.3199 73.21 83.9999C73.7 83.6799 74.07 83.2599 74.3 82.7599C74.53 82.2599 74.61 81.6799 74.53 81.0399C74.45 80.3999 74.18 79.7399 73.72 79.0299C73.26 78.3299 72.76 77.8199 72.22 77.4899C71.67 77.1599 71.12 76.9999 70.56 77.0099C70 77.0099 69.47 77.1799 68.98 77.4999Z" fill="var(--textColor)"/>
<path d="M61.15 80.21C61.62 80.04 62.06 79.99 62.48 80.05C62.9 80.11 63.28 80.3 63.62 80.62C63.96 80.94 64.23 81.39 64.44 81.97L66.03 86.37L64.92 86.77L63.36 82.47C63.17 81.94 62.88 81.57 62.49 81.37C62.1 81.17 61.66 81.16 61.18 81.33C60.85 81.45 60.58 81.63 60.37 81.87C60.16 82.11 60.03 82.4 59.98 82.73C59.93 83.06 59.98 83.43 60.12 83.82L61.62 87.97L60.5 88.38L57.99 81.46L59.07 81.07L59.68 82.75L59.53 82.8C59.51 82.07 59.65 81.51 59.95 81.1C60.25 80.69 60.65 80.4 61.16 80.21H61.15Z" fill="var(--textColor)"/>
<path d="M53.3099 82.1599C54.0099 82.0499 54.6399 82.1199 55.1999 82.3499C55.7599 82.5899 56.2199 82.9599 56.5799 83.4799C56.9399 83.9999 57.1799 84.6299 57.2899 85.3799C57.3999 86.1299 57.3699 86.7999 57.1799 87.4099C56.9999 88.0199 56.6799 88.5199 56.2399 88.9199C55.7999 89.3199 55.2399 89.5599 54.5799 89.6599C54.1899 89.7199 53.7999 89.7099 53.4099 89.6399C53.0199 89.5699 52.6399 89.4099 52.2999 89.1799C51.9499 88.9399 51.6499 88.5999 51.3999 88.1699C51.1499 87.7399 50.9699 87.1799 50.8699 86.4999L50.7999 86.0099L56.4499 85.1599L56.5999 86.1499L51.5799 86.9099L52.0699 86.4599C52.1399 86.9399 52.2799 87.3499 52.4899 87.6999C52.6999 88.0499 52.9599 88.3099 53.2899 88.4699C53.6199 88.6399 53.9999 88.6899 54.4399 88.6199C54.8799 88.5499 55.2399 88.3899 55.5199 88.1299C55.7999 87.8699 55.9999 87.5499 56.1099 87.1799C56.2199 86.8099 56.2499 86.4299 56.1899 86.0299L56.0899 85.3699C56.0099 84.8299 55.8499 84.3899 55.5999 84.0399C55.3599 83.6899 55.0499 83.4499 54.6899 83.3099C54.3299 83.1699 53.9199 83.1299 53.4799 83.1999C53.1899 83.2399 52.9399 83.3199 52.7199 83.4399C52.4999 83.5599 52.3099 83.7099 52.1699 83.9099C52.0299 84.0999 51.9299 84.3299 51.8699 84.5899L50.6899 84.4499C50.7499 84.0699 50.8899 83.7199 51.1199 83.3999C51.3499 83.0799 51.6499 82.8099 52.0199 82.5999C52.3899 82.3899 52.8299 82.2399 53.3299 82.1599H53.3099Z" fill="var(--textColor)"/>
<path d="M41.8199 89.6901L41.9199 88.6801L45.7099 89.0501L45.6099 90.0601L41.8199 89.6901ZM44.3399 91.6901L43.1599 91.5801L43.8599 84.4101C43.8899 84.0801 43.8499 83.8401 43.7299 83.6701C43.6099 83.5101 43.3999 83.4101 43.0899 83.3801C43.0199 83.3801 42.9199 83.3801 42.7999 83.3801C42.6799 83.3801 42.5699 83.3901 42.4799 83.4001L42.3299 82.3801C42.4599 82.3501 42.5999 82.3301 42.7599 82.3201C42.9199 82.3201 43.0699 82.3201 43.2199 82.3301C43.8499 82.3901 44.3299 82.6101 44.6499 82.9801C44.9699 83.3501 45.0999 83.8301 45.0399 84.4301L44.3399 91.6901Z" fill="var(--textColor)"/>
<path d="M39.36 81.5599C39.81 81.6699 40.2 81.8599 40.52 82.1299C40.84 82.3899 41.07 82.7199 41.21 83.0999C41.34 83.4799 41.35 83.9099 41.23 84.3799C41.13 84.7899 40.96 85.0999 40.74 85.3099C40.51 85.5199 40.25 85.6699 39.94 85.7499C39.63 85.8299 39.31 85.8599 38.96 85.8499C38.61 85.8399 38.27 85.8099 37.93 85.7699C37.49 85.7199 37.13 85.6699 36.86 85.6299C36.58 85.5899 36.37 85.5899 36.22 85.6299C36.07 85.6699 35.98 85.7799 35.93 85.9499V85.9899C35.84 86.2899 35.84 86.5499 35.89 86.7899C35.94 87.0299 36.07 87.2299 36.27 87.3899C36.46 87.5599 36.73 87.6799 37.06 87.7699C37.4 87.8599 37.71 87.8799 37.98 87.8299C38.25 87.7799 38.48 87.6999 38.67 87.5799C38.86 87.4599 39.02 87.3199 39.14 87.1799L40.15 87.8199C39.86 88.2099 39.53 88.4799 39.15 88.6499C38.78 88.8199 38.39 88.8999 37.99 88.9099C37.59 88.9099 37.21 88.8699 36.84 88.7799C36.6 88.7199 36.34 88.6199 36.05 88.4899C35.76 88.3599 35.5 88.1699 35.26 87.9299C35.02 87.6899 34.85 87.3799 34.75 86.9999C34.65 86.6199 34.67 86.1499 34.81 85.5899L36 80.8899L37.13 81.1799L36.88 82.1499L36.96 82.1699C37.08 82.0199 37.26 81.8899 37.48 81.7499C37.7 81.6199 37.97 81.5299 38.29 81.4799C38.61 81.4299 38.97 81.4599 39.37 81.5599H39.36ZM38.9 82.5199C38.47 82.4099 38.09 82.3999 37.76 82.4999C37.42 82.5899 37.15 82.7499 36.93 82.9799C36.71 83.2099 36.56 83.4599 36.49 83.7499L36.24 84.7399C36.3 84.6999 36.42 84.6699 36.58 84.6699C36.75 84.6699 36.94 84.6699 37.15 84.6899C37.36 84.7099 37.56 84.7299 37.76 84.7499C37.96 84.7699 38.11 84.7899 38.22 84.8099C38.5 84.8499 38.78 84.8499 39.04 84.8299C39.3 84.8099 39.52 84.7399 39.71 84.6099C39.9 84.4899 40.02 84.2899 40.09 84.0199C40.15 83.7699 40.14 83.5499 40.06 83.3499C39.97 83.1499 39.83 82.9799 39.63 82.8399C39.43 82.6999 39.19 82.5899 38.9 82.5199Z" fill="var(--textColor)"/>
<path d="M29.5699 88.84L33.2499 79.75L34.3499 80.19L30.6699 89.28L29.5699 88.84Z" fill="var(--textColor)"/>
<path d="M26.49 75.91C26.89 76.2 27.19 76.53 27.37 76.92C27.55 77.31 27.62 77.72 27.54 78.18C27.47 78.64 27.25 79.12 26.89 79.62L24.17 83.42L23.21 82.73L25.87 79.01C26.2 78.55 26.34 78.1 26.28 77.67C26.22 77.24 25.99 76.87 25.57 76.57C25.28 76.37 24.98 76.24 24.67 76.21C24.35 76.17 24.04 76.23 23.74 76.37C23.44 76.52 23.16 76.76 22.92 77.1L20.35 80.69L19.38 80L23.66 74.01L24.59 74.68L23.55 76.13L23.42 76.04C24.01 75.61 24.55 75.41 25.06 75.42C25.56 75.44 26.04 75.6 26.48 75.91H26.49Z" fill="var(--textColor)"/>
<path d="M22.38 73.14L16.78 77.91L16.03 77.03L17.28 75.96L17.34 76.03C16.97 76.21 16.62 76.3 16.28 76.31C15.94 76.31 15.63 76.25 15.34 76.11C15.05 75.97 14.8 75.78 14.6 75.54C14.25 75.13 14.1 74.7 14.13 74.23C14.17 73.76 14.36 73.32 14.7 72.9L14.8 73.02C14.46 73.19 14.12 73.28 13.76 73.27C13.41 73.27 13.07 73.19 12.74 73.03C12.42 72.87 12.13 72.64 11.87 72.35C11.59 72.03 11.41 71.67 11.33 71.28C11.24 70.89 11.27 70.5 11.42 70.1C11.57 69.7 11.86 69.31 12.3 68.94L16.08 65.72L16.85 66.62L13.1 69.82C12.7 70.16 12.5 70.52 12.52 70.9C12.54 71.28 12.68 71.61 12.93 71.91C13.14 72.16 13.38 72.33 13.64 72.43C13.9 72.53 14.16 72.54 14.43 72.48C14.7 72.42 14.95 72.29 15.19 72.09L18.85 68.97L19.62 69.87L15.77 73.14C15.46 73.4 15.3 73.72 15.28 74.09C15.26 74.46 15.39 74.8 15.66 75.12C15.84 75.34 16.07 75.5 16.33 75.6C16.6 75.71 16.88 75.73 17.18 75.68C17.48 75.63 17.78 75.47 18.08 75.22L21.61 72.22L22.38 73.12V73.14Z" fill="var(--textColor)"/>
<path d="M12.8601 58.3401C13.1001 58.9601 13.1601 59.5701 13.0401 60.1501C12.9201 60.7301 12.6501 61.2601 12.2201 61.7201C11.7901 62.1901 11.2201 62.5501 10.5101 62.8201C9.79006 63.1001 9.12006 63.2001 8.48006 63.1501C7.84006 63.0901 7.29006 62.8901 6.81006 62.5301C6.34006 62.1701 5.98006 61.6801 5.74006 61.0601C5.61006 60.7301 5.54006 60.4001 5.51006 60.0701C5.48006 59.7401 5.51006 59.4301 5.57006 59.1201C5.64006 58.8101 5.76006 58.5301 5.92006 58.2601C6.09006 57.9901 6.30006 57.7601 6.57006 57.5501L7.28006 58.5001C7.12006 58.6201 6.99006 58.7501 6.88006 58.9101C6.77006 59.0701 6.69006 59.2401 6.64006 59.4301C6.59006 59.6201 6.57006 59.8201 6.58006 60.0301C6.59006 60.2401 6.64006 60.4601 6.73006 60.6901C6.91006 61.1501 7.17006 61.4801 7.52006 61.6801C7.87006 61.8801 8.27006 61.9801 8.72006 61.9801C9.16006 61.9801 9.62006 61.8801 10.0801 61.7101C10.5301 61.5401 10.9201 61.3001 11.2501 61.0101C11.5801 60.7201 11.8101 60.3801 11.9301 59.9901C12.0501 59.6001 12.0301 59.1801 11.8501 58.7201C11.7601 58.4901 11.6501 58.2901 11.5201 58.1201C11.3901 57.9501 11.2301 57.8101 11.0601 57.7101C10.8901 57.6001 10.7101 57.5301 10.5101 57.4901C10.3101 57.4501 10.1201 57.4401 9.91006 57.4601L9.81006 56.2901C10.1501 56.2601 10.4801 56.2901 10.7801 56.3801C11.0801 56.4701 11.3701 56.6001 11.6401 56.7801C11.9001 56.9601 12.1401 57.1801 12.3401 57.4501C12.5401 57.7201 12.7101 58.0201 12.8401 58.3501L12.8601 58.3401Z" fill="var(--textColor)"/>
<path d="M11.1199 52.1601C11.1999 52.6201 11.1799 53.0501 11.0799 53.4501C10.9699 53.8501 10.7699 54.2001 10.4799 54.4701C10.1899 54.7501 9.79994 54.9301 9.31994 55.0101C8.89994 55.0801 8.54994 55.0601 8.26994 54.9401C7.97994 54.8201 7.73994 54.6401 7.53994 54.3901C7.33994 54.1401 7.17994 53.8601 7.04994 53.5401C6.91994 53.2201 6.79994 52.8901 6.69994 52.5601C6.56994 52.1401 6.46994 51.7901 6.38994 51.5301C6.30994 51.2601 6.22994 51.0701 6.12994 50.9501C6.02994 50.8301 5.89994 50.7901 5.71994 50.8201H5.67994C5.37994 50.8801 5.12994 50.9801 4.93994 51.1301C4.74994 51.2801 4.61994 51.4701 4.53994 51.7201C4.46994 51.9601 4.45994 52.2601 4.51994 52.5901C4.57994 52.9401 4.67994 53.2201 4.82994 53.4501C4.97994 53.6801 5.14994 53.8501 5.33994 53.9801C5.52994 54.1001 5.70994 54.1901 5.89994 54.2401L5.71994 55.4301C5.24994 55.3201 4.85994 55.1301 4.55994 54.8601C4.25994 54.5901 4.01994 54.2701 3.84994 53.9101C3.67994 53.5501 3.55994 53.1801 3.49994 52.8101C3.45994 52.5701 3.43994 52.2901 3.43994 51.9701C3.43994 51.6501 3.50994 51.3301 3.62994 51.0201C3.74994 50.7001 3.96994 50.4201 4.26994 50.1701C4.57994 49.9201 5.00994 49.7501 5.57994 49.6501L10.3599 48.8201L10.5599 49.9701L9.56994 50.1401V50.2201C9.76994 50.2701 9.95994 50.3701 10.1699 50.5301C10.3799 50.6901 10.5699 50.8901 10.7399 51.1601C10.9099 51.4301 11.0299 51.7701 11.0999 52.1801L11.1199 52.1601ZM10.0599 52.1301C9.97994 51.7001 9.83994 51.3501 9.61994 51.0801C9.39994 50.8101 9.13994 50.6201 8.83994 50.5101C8.53994 50.4001 8.24994 50.3701 7.94994 50.4201L6.94994 50.5901C7.00994 50.6301 7.07994 50.7201 7.15994 50.8801C7.22994 51.0301 7.30994 51.2101 7.37994 51.4101C7.44994 51.6101 7.50994 51.8001 7.56994 51.9901C7.62994 52.1801 7.66994 52.3301 7.69994 52.4401C7.77994 52.7201 7.88994 52.9701 8.00994 53.2001C8.13994 53.4301 8.28994 53.6001 8.47994 53.7201C8.66994 53.8401 8.89994 53.8701 9.17994 53.8301C9.42994 53.7901 9.62994 53.6801 9.77994 53.5301C9.91994 53.3701 10.0199 53.1701 10.0699 52.9301C10.1199 52.6901 10.1199 52.4301 10.0699 52.1401L10.0599 52.1301Z" fill="var(--textColor)"/>
<path d="M10.3 46.56L1.96 46.69C1.53 46.69 1.18 46.6 0.89 46.41C0.6 46.22 0.38 45.96 0.23 45.64C0.08 45.32 0 44.99 0 44.63C0 44.35 0.02 44.12 0.06 43.93C0.1 43.74 0.14 43.61 0.18 43.52L1.2 43.83C1.18 43.89 1.16 43.97 1.13 44.07C1.1 44.17 1.09 44.3 1.1 44.47C1.1 44.83 1.2 45.1 1.39 45.26C1.58 45.42 1.85 45.5 2.21 45.5L10.29 45.38L10.31 46.56H10.3ZM2.9 43.79L3.91 43.77L3.97 48.1L2.96 48.12L2.89 43.79H2.9Z" fill="var(--textColor)"/>
<path d="M2.32003 39.34L0.530029 38.17L0.710029 36.86L2.46003 38.39L2.33003 39.35L2.32003 39.34ZM10.81 39.8C10.71 40.5 10.48 41.09 10.09 41.56C9.70003 42.03 9.22003 42.36 8.62003 42.56C8.02003 42.76 7.35003 42.81 6.60003 42.71C5.85003 42.61 5.21003 42.38 4.68003 42.04C4.15003 41.69 3.75003 41.25 3.50003 40.71C3.25003 40.17 3.16003 39.57 3.25003 38.91C3.30003 38.52 3.42003 38.15 3.60003 37.79C3.78003 37.43 4.03003 37.12 4.36003 36.85C4.69003 36.58 5.09003 36.39 5.58003 36.27C6.07003 36.15 6.65003 36.14 7.33003 36.23L7.82003 36.3L7.05003 41.96L6.06003 41.82L6.74003 36.79L7.03003 37.39C6.55003 37.33 6.12003 37.34 5.72003 37.44C5.33003 37.54 5.01003 37.72 4.76003 37.99C4.51003 38.26 4.35003 38.61 4.29003 39.05C4.23003 39.49 4.29003 39.88 4.46003 40.22C4.63003 40.56 4.88003 40.84 5.20003 41.05C5.52003 41.26 5.88003 41.39 6.28003 41.45L6.94003 41.54C7.48003 41.61 7.95003 41.58 8.35003 41.45C8.75003 41.31 9.07003 41.09 9.31003 40.78C9.55003 40.47 9.70003 40.09 9.76003 39.65C9.80003 39.36 9.79003 39.1 9.74003 38.85C9.69003 38.6 9.59003 38.39 9.45003 38.19C9.31003 38 9.12003 37.84 8.88003 37.71L9.35003 36.62C9.70003 36.78 10 37.02 10.24 37.33C10.48 37.64 10.65 38 10.76 38.42C10.87 38.84 10.88 39.3 10.81 39.8Z" fill="var(--textColor)"/>
<path d="M9.09001 33.19L9.02001 33.17C8.45001 32.98 8.03001 32.78 7.75001 32.57C7.48001 32.36 7.28001 32.12 7.17001 31.85C7.06001 31.58 6.96001 31.28 6.89001 30.93C6.81001 30.6 6.68001 30.3 6.48001 30.03C6.29001 29.76 6.01001 29.56 5.65001 29.44C5.36001 29.34 5.08001 29.33 4.83001 29.39C4.57001 29.46 4.35001 29.58 4.16001 29.77C3.97001 29.96 3.82001 30.2 3.73001 30.48C3.65001 30.73 3.62001 30.98 3.65001 31.24C3.68001 31.5 3.77001 31.74 3.94001 31.96C4.11001 32.18 4.36001 32.36 4.70001 32.5L4.31001 33.69C3.79001 33.5 3.39001 33.21 3.11001 32.85C2.83001 32.49 2.65001 32.06 2.59001 31.59C2.53001 31.12 2.59001 30.64 2.74001 30.15C2.92001 29.61 3.18001 29.17 3.52001 28.84C3.86001 28.51 4.26001 28.3 4.70001 28.2C5.14001 28.1 5.60001 28.13 6.08001 28.29C6.59001 28.46 6.98001 28.71 7.27001 29.05C7.56001 29.39 7.75001 29.8 7.87001 30.29C7.94001 30.61 8.03001 30.88 8.13001 31.09C8.23001 31.3 8.37001 31.48 8.56001 31.63C8.75001 31.77 9.03001 31.91 9.41001 32.03L9.48001 32.05L9.11001 33.18L9.09001 33.19ZM12.17 33.56C12.09 33.79 11.95 33.97 11.73 34.08C11.51 34.19 11.29 34.21 11.06 34.13C10.83 34.05 10.66 33.9 10.54 33.69C10.43 33.47 10.41 33.24 10.49 33.01C10.57 32.78 10.71 32.61 10.93 32.5C11.15 32.39 11.37 32.38 11.61 32.45C11.84 32.53 12.01 32.67 12.12 32.89C12.23 33.11 12.25 33.33 12.17 33.57V33.56Z" fill="var(--textColor)"/>
</g>
<defs>
<clipPath id="clip0_163_32">
<rect width="92.99" height="91.69" fill="white"/>
</clipPath>
</defs>
</svg>
