<svg width="301" height="301" viewBox="0 0 301 301" fill="none" xmlns="http://www.w3.org/2000/svg">
<g clip-path="url(#clip0_236_10)">
<path d="M200.6 269.73C200.6 259.27 193.22 250.3 182.97 248.2C173.3 246.22 162.17 242.94 150.45 237.49C139.57 232.43 120.19 225.65 117.05 210.64C115.4 202.76 117.99 192.08 125.17 186.78C136.92 178.1 156.91 186.82 185.91 199.88C215.15 213.05 239.83 229.3 264.36 223.52C264.62 223.46 264.88 223.4 265.16 223.33C286.24 218.07 300.9 198.95 300.9 177.22V41.37C300.9 18.52 282.38 0 259.53 0H42.24C18.91 0 0 18.91 0 42.24V67.65C0 93.84 23.86 113.7 49.56 108.66C49.76 108.62 49.95 108.58 50.15 108.54C80.88 102.2 86.59 76.67 119.28 69.85C124.8 68.7 158.77 62.31 175.16 83.82C187.46 99.96 185.18 125.67 171.94 140.78C157.11 157.7 133.02 156.21 126.81 155.82C93.88 153.78 85.13 129.45 56.96 126.81C46.2 125.8 31.77 127.88 13.75 139.87C5.12 145.61 0 155.35 0 165.72V269.74C0 286.95 13.95 300.9 31.16 300.9H169.43C186.64 300.9 200.59 286.95 200.59 269.74L200.6 269.73Z" fill="#141414"/>
</g>
<defs>
<clipPath id="clip0_236_10">
<rect width="300.9" height="300.9" fill="white"/>
</clipPath>
</defs>
</svg>
